<svg width="800" height="600" xmlns="http://www.w3.org/2000/svg">

 <g>
  <title>Layer 1</title>
  <path d="m268,189c1,-1 1.4595,-4.0535 1,-6c-0.51373,-2.17625 -3.90634,-5.10341 -5,-6c-2.78833,-2.28587 -5.83807,-2.46552 -11,-4c-4.88763,-1.45294 -11.9258,-2.49756 -17,-3c-3.98053,-0.39415 -7,0 -11,0c-5,0 -10.08714,-0.83037 -14,0c-9.63431,2.04454 -11.08031,5.37642 -15,7c-2.77164,1.14806 -5.34619,1.70546 -7,4c-1.30745,1.814 -3.14429,2.93414 -4,5c-1.21014,2.92157 -3.98163,5.71201 -5,11c-0.37822,1.96391 0,6 0,9c0,3 0,7 0,11c0,5 0,8 0,13c0,3 -1.07193,5.61104 1,8c1.46507,1.68924 3.06601,2.87766 5,4c3.11848,1.80972 5.88496,3.27431 8,4c4.82303,1.65482 6,2 10,3c4,1 9.54915,2.95517 13,4c1.91418,0.57957 9.98453,0.08075 15,1c5.98309,1.0966 12,3 19,3c9,0 16,0 23,0c5,0 8.02997,0.51126 12,1c4.09222,0.50378 9.21539,3.11893 15,5c6.37939,2.07446 11.23401,5.49295 16,8c3.19098,1.67856 3.5582,3.51929 7,6c1.814,1.30746 3.724,5.22272 7,9c0.92661,1.06836 4.617,5.74707 6,10c1.88107,5.78461 3,8 3,11c0,3 1,10 1,12c0,4 0,8 0,12c0,3 0.8009,7.06458 0,12c-0.50653,3.12143 -2.60645,5.5387 -4,8c-2.03146,3.58792 -3.91754,8.05664 -6,11c-2.88785,4.0817 -6.93814,8.07858 -12,12c-3.95267,3.0621 -8,5 -11,6c-3,1 -4.79025,1.99023 -12,3c-5.94202,0.83221 -14,0 -21,0c-6,0 -15.09201,0.26306 -24,-3c-5.05659,-1.85226 -11.33942,-5.12775 -20,-9c-7.36008,-3.29077 -12,-7 -15,-10c-2,-2 -5.3851,-4.37201 -8,-8c-3.30762,-4.58908 -7,-8 -11,-12c-2,-2 -6.14429,-4.93414 -7,-7c-1.21014,-2.92157 -3,-5 -3,-6l-1,-1l-1,0" id="svg_1" stroke="#000" fill="none"/>
  <path stroke="#000" d="m424,176c0.02961,-1 0.05922,-1 0.05922,1c0,5 0,9 0,14c0,10 0,17 0,25c0,5 0,11 0,15c0,3 0,8 0,14c0,4 0,7 0,12c0,9 0,14 0,18c0,5 0,9 0,14c0,3 0,7 0,10c0,3 0,7 0,9c0,3 0,6 0,8c0,2 0.01876,6.02249 0.02961,9c0.01492,4.09222 0.04837,7.02249 0.05922,10c0.01492,4.09222 0.04422,5.87857 0.05922,9c0.01423,2.96127 0,5 0,8c0,3 0,6 0,7c0,2 0,5 0,7c0,2 0,4 0,7c0,3 0,6 0,7l0,2l0,1l-0.02961,0" id="svg_2" fill="none"/>
  <path stroke="#000" d="m424,277c0,0 1,0 2,0c2,0 4.98523,0 12,0c8.98328,0 16.93796,0 23,0c1.99319,0 4,0 7,0c4,0 9.10699,0 13,0c2.17624,0 5,0 10,0c5,0 11,0 16,0c3,0 6,0 9,0c2,0 5,0 7,0c5,0 8,0 11,0c1,0 2,0 3,0c2,0 3,0 5,0c1,0 2,0 3,0l3,0l2,0l1,0" id="svg_3" fill="none"/>
  <path stroke="#000" d="m545.70228,379c-0.21629,1 -0.10817,-5.9837 0,-29c0.07988,-16.996 0,-29 0,-42c0,-15 0,-26 0,-33c0,-6 0,-10 0,-13c0,-3 0,-6 0,-10c0,-6 0,-11 0,-15c0,-2 0,-5 0,-7c0,-6 0.43257,-11 0.43257,-14c0,-2 0,-4 0,-6c0,-1 -0.08277,-2.07613 0,-3c0.11705,-1.30656 0.21629,-2 0.21629,-3c0,-2 0.10517,-3.82375 0.21629,-6c0.04969,-0.97325 0,-2 0,-3c0,-1 0.10517,-1.82375 0.21629,-4c0.04969,-0.97325 0,-2 0,-3c0,-1 -0.04969,-2.02675 0,-3c0.11111,-2.17625 0.21629,-3 0.21629,-4c0,-2 0,-3 0,-7c0,-1 0,-2 0,-4l0,-1" id="svg_4" fill="none"/>
 </g>
</svg>